<svg xmlns="http://www.w3.org/2000/svg" viewBox="0 0 1920 1080" preserveAspectRatio="xMidYMid slice">
  <defs>
    <linearGradient id="hg_glow" x1="50%" y1="0%" x2="50%" y2="100%">
      <stop offset="0%" stop-color="#06b6d4" stop-opacity="0.45"/>
      <stop offset="70%" stop-color="#0f172a" stop-opacity="0"/>
    </linearGradient>
  </defs>
  <rect width="1920" height="1080" fill="#030712"/>
  <rect width="1920" height="1080" fill="url(#hg_glow)" opacity="0.6"/>
  <g stroke="#22d3ee" stroke-width="1" opacity="0.22" fill="none">
    <path d="M200 1080 L960 200 L1720 1080"/>
    <path d="M0 700 L960 120 L1920 700"/>
  </g>
  <g stroke="#2dd4bf" stroke-width="0.9" opacity="0.18" fill="none">
    <path d="M880 0 L880 1080 M960 0 L960 1080 M1040 0 L1040 1080"/>
    <path d="M0 360 L1920 360 M0 540 L1920 540 M0 720 L1920 720"/>
  </g>
  <rect x="1180" y="180" width="8" height="520" fill="#14b8a6" opacity="0.12"/>
  <rect x="1200" y="240" width="140" height="6" fill="#5eead4" opacity="0.2"/>
  <rect x="1200" y="300" width="100" height="4" fill="#5eead4" opacity="0.15"/>
  <path d="M400 880 C600 640, 900 600, 1200 720 S1700 800, 1880 680" fill="none" stroke="#0891b2" stroke-width="2" opacity="0.25"/>
</svg>
