<svg xmlns="http://www.w3.org/2000/svg" viewBox="0 0 640 540" fill="none">
  <defs>
    <linearGradient id="d_bg" x1="0%" y1="0%" x2="100%" y2="100%">
      <stop offset="0%" stop-color="#0c1929"/>
      <stop offset="55%" stop-color="#132337"/>
      <stop offset="100%" stop-color="#0a1628"/>
    </linearGradient>
    <radialGradient id="d_moon" cx="78%" cy="18%" r="35%">
      <stop offset="0%" stop-color="#60a5fa" stop-opacity="0.35"/>
      <stop offset="70%" stop-color="#1e3a8a" stop-opacity="0"/>
    </radialGradient>
    <linearGradient id="d_road" x1="0%" y1="100%" x2="100%" y2="0%">
      <stop offset="0%" stop-color="#1e40af" stop-opacity="0.5"/>
      <stop offset="100%" stop-color="#38bdf8" stop-opacity="0.15"/>
    </linearGradient>
  </defs>
  <rect width="640" height="540" rx="28" fill="url(#d_bg)"/>
  <rect width="640" height="540" rx="28" fill="url(#d_moon)"/>
  <path d="M-20 520 L120 280 L280 220 L440 200 L620 240 L680 520 Z" fill="url(#d_road)" opacity="0.4"/>
  <path d="M40 500 Q200 260 320 240 T600 280 L620 540 L20 540 Z" fill="#1e3a8a" opacity="0.25"/>
  <path d="M60 520 Q220 300 340 280 T580 320" stroke="#38bdf8" stroke-width="2.5" opacity="0.45" fill="none"/>
  <path d="M80 530 Q240 340 360 320 T600 360" stroke="#7dd3fc" stroke-width="1.5" opacity="0.3" fill="none"/>
  <g opacity="0.85">
    <rect x="420" y="72" width="14" height="280" rx="3" fill="#172554"/>
    <rect x="418" y="68" width="18" height="24" rx="2" fill="#334155"/>
    <circle cx="427" cy="60" r="14" fill="#3b82f6" opacity="0.9"/>
    <path d="M427 74 V120 M412 98 H442" stroke="#93c5fd" stroke-width="2" opacity="0.75"/>
    <ellipse cx="427" cy="210" rx="120" ry="28" fill="#1d4ed8" opacity="0.12"/>
  </g>
  <g opacity="0.55">
    <rect x="88" y="320" width="160" height="56" rx="6" fill="#0f172a" stroke="#334155" stroke-width="1.2"/>
    <rect x="102" y="336" width="48" height="8" rx="2" fill="#3b82f6" opacity="0.6"/>
    <rect x="102" y="352" width="120" height="6" rx="2" fill="#475569" opacity="0.5"/>
    <circle cx="220" cy="348" r="8" fill="#22c55e" opacity="0.85"/>
  </g>
  <path d="M520 120 L540 100 L560 120 M530 110 V140" stroke="#64748b" stroke-width="1.2" opacity="0.4"/>
  <circle cx="540" cy="100" r="3" fill="#94a3b8" opacity="0.5"/>
  <rect x="32" y="32" width="576" height="476" rx="22" stroke="#334155" stroke-width="1" opacity="0.35"/>
</svg>
