<svg xmlns="http://www.w3.org/2000/svg" viewBox="0 0 640 540" fill="none">
  <defs>
    <linearGradient id="h_bg" x1="50%" y1="0%" x2="50%" y2="100%">
      <stop offset="0%" stop-color="#042f2e"/>
      <stop offset="100%" stop-color="#020617"/>
    </linearGradient>
    <linearGradient id="h_accent" x1="0%" y1="0%" x2="100%" y2="0%">
      <stop offset="0%" stop-color="#14b8a6" stop-opacity="0"/>
      <stop offset="50%" stop-color="#2dd4bf" stop-opacity="0.45"/>
      <stop offset="100%" stop-color="#14b8a6" stop-opacity="0"/>
    </linearGradient>
  </defs>
  <rect width="640" height="540" rx="28" fill="url(#h_bg)"/>
  <rect x="0" y="180" width="640" height="4" fill="url(#h_accent)" opacity="0.6"/>
  <g stroke="#134e4a" stroke-width="1" opacity="0.5">
    <line x1="0" y1="260" x2="640" y2="260"/>
    <line x1="0" y1="340" x2="640" y2="340"/>
    <line x1="160" y1="40" x2="160" y2="500"/>
    <line x1="320" y1="40" x2="320" y2="500"/>
    <line x1="480" y1="40" x2="480" y2="500"/>
  </g>
  <rect x="48" y="56" width="544" height="360" rx="10" stroke="#0f766e" stroke-width="1.5" fill="#020617" opacity="0.55"/>
  <rect x="72" y="88" width="200" height="120" rx="6" fill="#0f172a" stroke="#14b8a6" stroke-width="1.2" opacity="0.95"/>
  <path d="M92 118 H248 M92 142 H220 M92 166 H236" stroke="#5eead4" stroke-width="2" opacity="0.55" stroke-linecap="round"/>
  <circle cx="360" cy="280" r="100" stroke="#2dd4bf" stroke-width="1.5" opacity="0.35" fill="none"/>
  <circle cx="360" cy="280" r="64" stroke="#14b8a6" stroke-width="1" opacity="0.25" fill="none" stroke-dasharray="8 12"/>
  <path d="M360 196 V364 M296 280 H424" stroke="#99f6e4" stroke-width="1.5" opacity="0.35"/>
  <rect x="420" y="240" width="160" height="100" rx="8" fill="#022c22" stroke="#0d9488" stroke-width="1" opacity="0.9"/>
  <path d="M440 268 H560 M440 292 H520 M440 316 H540" stroke="#2dd4bf" stroke-width="2" opacity="0.4" stroke-linecap="round"/>
  <rect x="96" y="400" width="448" height="12" rx="4" fill="#134e4a" opacity="0.45"/>
  <rect x="32" y="32" width="576" height="476" rx="22" stroke="#115e59" stroke-width="1" opacity="0.35"/>
</svg>
